<?xml version="1.0" encoding="UTF-8"?>
<svg fill="none" viewBox="0 0 124 56" xmlns="http://www.w3.org/2000/svg">
<g clip-path="url(#a)">
<path d="m50.594 46.171c-1.5138-0.1632-2.5909-0.9221-3.5702-2.1054-1.4566-1.7544-1.8238-3.3498-2.75-5.5816-1.4036-3.3865-3.4069-6.9362-5.1124-8.8825-0.4856-0.5549-1.1017-0.0449-0.5264 0.7181 2.0728 2.7541 2.8561 5.3042 3.2234 6.055-0.3101-0.3795-3.309-6.5283-7.3117-8.7479-0.5589-0.3835-0.9874 0.3428-0.6813 0.5957 4.2474 3.513 5.4673 6.9689 6.3323 8.6173 0 0-2.9785-5.4633-7.9399-8.3357 3.5007-3.0724 7.7523-2.9296 9.9555-2.9418 0.9746-0.0154 1.9492 0.0336 2.9173 0.1469 0.6365 0.102 1.0282 0.3305 0.9222 0.816-0.4081 1.3913-1.832 1.273-2.9582 1.3464-2.04 0.1306-4.3576 1.1425-3.9699 1.6974 0.5233 0.2973 1.1 0.4887 1.6973 0.563 0.93 0.1916 1.8851 0.2301 2.8275 0.1143 1.3098-0.1347 5.8265-1.3995 7.1158-2.4481 2.4767-1.9748 6.1855-8.5357 2.7704-15.174-0.0271-0.0429-0.0653-0.0777-0.1105-0.1006-0.0453-0.023-0.0959-0.0333-0.1465-0.0299-0.1183 0.0653-0.3509 1.0527-0.4978 1.3709-0.6447 1.3832-1.7096 2.1543-3.1458 2.7011-2.1298 0.816-3.7578 0.6446-6.1692 0.816-3.6721 0.2407-7.6543 0.9915-10.049 1.9748 0.4172-0.4017 0.7598-0.8741 1.0119-1.3954 0.4724-0.8239 0.806-1.7199 0.9874-2.6521 0.2979-1.322 0.4896-6.006-0.0898-7.5564-1.1057-2.9744-6.1814-8.5438-13.558-7.3687-0.0979 0-0.2122 0.15096-0.1999 0.20401 0 0.13056 0.8895 0.66099 1.1465 0.90172 1.1098 1.0404 1.5137 2.293 1.5872 3.8149 0.102 2.2767-0.5631 3.7701-1.1669 6.1202-0.914 3.5579-1.4485 7.5972-1.2567 10.2 0.053 0.7345 0.8527 0.6978 0.8527-0.2611 0-3.4436 0.9058-5.9692 1.0649-6.773 0 0.4896-1.2811 7.2014 0.5753 11.388 0.2204 0.6405 0.9956 0.3182 0.9058-0.0653-1.2811-5.3613-0.1713-8.858 0.1306-10.694 0 0-0.918 6.1978 1.3465 11.494-4.5861 0.408-7.9237-2.187-9.6986-3.4559-0.7984-0.5598-1.559-1.1718-2.2767-1.832-0.457-0.457-0.6365-0.8691-0.2774-1.1873 1.1547-0.8813 2.2318 0.0408 3.1825 0.6406 1.7463 1.1016 4.2025 1.632 4.2148 0.9547-0.2489-0.5483-0.6039-1.042-1.0445-1.4525-0.6416-0.6989-1.3927-1.2887-2.2237-1.7463-1.1425-0.6814-5.5409-2.3134-7.2056-2.2114-3.1621 0.1509-10.013 3.2926-11.139 10.674 0 0.0979 0.077522 0.2489 0.13464 0.253 0.13056 0 0.90171-0.6447 1.224-0.816 1.3301-0.7426 2.6439-0.7467 4.1332-0.3469 2.1992 0.5917 3.4192 1.6811 5.4633 2.9704 3.105 1.9503 6.7894 3.6721 9.3069 4.2923-0.5953 0.0682-1.1717 0.2511-1.6974 0.5386-0.8648 0.3907-1.66 0.9199-2.3542 1.5668-0.9833 0.8772-3.9007 4.5493-4.3291 6.161-0.8486 3.0519 0 10.539 6.6588 13.913 0.0467 0.0182 0.0974 0.0237 0.1469 0.0158s0.096-0.0288 0.1347-0.0607c0.0571-0.1183-0.3305-1.0568-0.4081-1.4036-0.2896-1.4933 0.1184-2.7459 0.963-4.0312 1.2485-1.9054 2.6643-2.7255 4.5289-4.2678 2.8235-2.3379 5.6265-5.3042 6.9852-7.4993 0.3877-0.6243-0.2774-1.0649-0.8405-0.2897-2.04 2.7908-4.2352 4.3005-4.835 4.8595 0.2653-0.4081 5.2594-5.0798 6.21-9.5598 0.2-0.6447-0.6161-0.8405-0.767-0.4774-2.1095 5.0961-5.0594 7.2749-6.3814 8.5683 0 0 4.3087-4.4188 5.6184-9.98 3.9822 2.3624 5.2144 6.3854 5.9325 8.4459 0.3336 0.9181 0.6062 1.8572 0.816 2.8112 0.1061 0.6365 0 1.0772-0.461 1.1302-1.4485 0.053-1.7953-1.322-2.2278-2.3624-0.7834-1.9095-2.5011-3.7578-2.901-3.2152-0.1194 0.5911-0.1194 1.2001 0 1.7912 0.1239 0.9412 0.3995 1.8562 0.8161 2.7092 0.5508 1.1996 3.2029 5.0676 4.6146 5.9489 2.6725 1.7055 10.078 3.1009 15.26-2.2767 0.0316-0.0397 0.0518-0.0873 0.0583-0.1377s-1e-3 -0.1015-0.0216-0.1479c-0.0939-0.0939-1.1057 0.0081-1.4729-0.0286zm-20.046-30.989c0.2917-0.9303 0.6434-1.8407 1.0527-2.7255 0.2978-0.5753 0.6324-0.8732 1.0404-0.6243 1.1873 0.816 0.6406 2.1339 0.355 3.2274-0.51 1.9748-0.2775 4.431 0.3509 4.3005-0.5794 0.306-0.2938 0.9751 0.5794 0.6895 3.2641-1.0731 5.957-0.9996 6.7689-1.0976-0.457 0.1714-7.2382 1.0282-10.641 4.0802-0.5386 0.408 0 1.0445 0.3468 0.8405 4.6881-2.8724 8.3602-2.9091 10.208-3.1947 0 0-6.0875 1.0445-10.408 4.7819-1.7586-4.2434-0.3183-8.2052 0.3468-10.278zm-10.147 23.31c-0.7796 0.5845-1.5975 1.1161-2.4481 1.5912-0.5753 0.2938-1.0241 0.3346-1.2241-0.1061-0.4773-1.3709 0.7345-2.1053 1.6035-2.8234 1.5872-1.3097 2.8561-3.4681 2.2278-3.7007 0.6936 0.1428 0.8813-0.6039 0-0.8895-3.2641-1.0527-5.4103-2.6847-6.1202-3.0805 0.4733 0.1265 6.4711 3.411 11.016 2.9173 0.6773 0 0.6079-0.8487 0.2121-0.8813-5.5122-0.4121-8.5071-2.5297-10.164-3.3661 0 0 5.5245 2.7133 11.204 2.2277-1.0649 4.4637-4.5576 6.8261-6.3079 8.1114zm9.6291-8.4827c-0.1141-0.0386-0.2361-0.0484-0.355-0.0285-0.0991 0.016-0.1932 0.0549-0.2747 0.1137s-0.1481 0.1358-0.1945 0.2249c-0.0453 0.1024-0.0848 0.2073-0.1183 0.3142-1.7749 5.9203-4.023 7.4748-5.5408 8.9763 0 0 4.5656-5.6551 4.5656-9.8535 0.0037-0.1383-0.0156-0.2761-0.0571-0.408-0.0979-0.204-0.2693-0.3224-0.6406-0.3346-0.0447-0.0041-0.0898-0.0041-0.1346 0-6.21 0.1754-8.3929-1.4852-10.298-2.4481 0 0 6.8016 2.5746 10.788 1.2648 0.1005-0.0408 0.1915-0.102 0.2673-0.1797 0.0757-0.0777 0.1346-0.1702 0.1729-0.2717 0.0383-0.1016 0.0553-0.2099 0.0497-0.3183-0.0055-0.1084-0.0334-0.2144-0.0819-0.3115v-0.0653c-2.0931-5.8754-1.1791-8.4459-0.8405-10.559 0 0-0.3794 7.2586 2.0809 10.657 0.0998 0.1322 0.2452 0.2224 0.408 0.253 0.1369 0.024 0.2773 0.0174 0.4114-0.0193 0.134-0.0367 0.2582-0.1025 0.3638-0.1929 4.8962-3.7455 7.6299-3.6721 9.7393-4.0107 0 0-7.0178 1.9013-9.4781 5.3042-0.104 0.1413-0.1636 0.3102-0.1714 0.4855-0.0119 0.1457 0.0208 0.2916 0.0937 0.4184 0.0728 0.1267 0.1824 0.2284 0.3143 0.2915 5.19 3.4478 6.0305 6.0631 7.0015 7.9604 0 0-4.0638-6.0305-8.0746-7.2627h0.0041z" fill="#F27331"/>
<path d="m76.437 23.889v23.44h-0.9547v-23.44h0.9547z" fill="#343637"/>
<path d="m63.724 29.581c-0.1805-0.4673-0.5053-0.8649-0.9272-1.1349-0.4219-0.2701-0.919-0.3985-1.4189-0.3666-1.6525 0-2.5787 1.1873-2.5787 2.6725s0.9425 2.6766 2.5787 2.6766c0.5006 0.0331 0.9988-0.0931 1.4232-0.3607 0.4244-0.2675 0.7532-0.6626 0.9392-1.1286l0.9139 0.2734c-0.2543 0.6479-0.707 1.1988-1.2932 1.574-0.5862 0.3751-1.276 0.5554-1.9709 0.515-2.2359 0-3.5456-1.5994-3.5456-3.5497-0.0209-0.4712 0.0566-0.9415 0.2274-1.3811s0.4312-0.8389 0.7647-1.1724 0.7328-0.5939 1.1724-0.7647 0.9099-0.2483 1.3811-0.2274c0.6947-0.0426 1.385 0.1363 1.9716 0.5109 0.5865 0.3747 1.0391 0.9258 1.2925 1.574l-0.9302 0.2897z" fill="#343637"/>
<path d="m73.41 30.752c0.0138 0.7178-0.1865 1.4234-0.5752 2.027-0.3888 0.6035-0.9484 1.0776-1.6076 1.3619-0.6593 0.2843-1.3882 0.3658-2.094 0.2343-0.7057-0.1316-1.3563-0.4703-1.8688-0.973-0.5126-0.5027-0.8638-1.1466-1.009-1.8497-0.1452-0.703-0.0778-1.4334 0.1937-2.098 0.2714-0.6646 0.7346-1.2334 1.3305-1.6337 0.5959-0.4004 1.2975-0.6143 2.0154-0.6144 0.475-0.0233 0.9497 0.0519 1.3942 0.221 0.4445 0.169 0.8493 0.4282 1.1888 0.7612s0.6065 0.7326 0.7841 1.1738c0.1776 0.4411 0.262 0.9143 0.2479 1.3896zm-6.263 0c0.0048 0.5227 0.1642 1.0322 0.4581 1.4645 0.2939 0.4322 0.7091 0.7678 1.1934 0.9644 0.4843 0.1967 1.0159 0.2457 1.528 0.1408 0.512-0.105 0.9815-0.3591 1.3494-0.7304 0.3679-0.3712 0.6177-0.8431 0.7179-1.3561s0.0464-1.0441-0.1548-1.5266c-0.2011-0.4824-0.5405-0.8945-0.9754-1.1844s-0.9459-0.4446-1.4686-0.4447c-0.3542-0.0165-0.708 0.0415-1.0384 0.1703s-0.6301 0.3255-0.8797 0.5774c-0.2495 0.2519-0.4435 0.5533-0.5692 0.8849-0.1258 0.3316-0.1805 0.6859-0.1607 1.0399z" fill="#343637"/>
<path d="m80 23.93v10.233h-0.967v-10.233h0.967z" fill="#343637"/>
<path d="m80 39.169v8.1603h-0.967v-8.1603h0.967z" fill="#343637"/>
<path d="m83.043 31.066c0.0109 0.3255 0.0867 0.6456 0.2228 0.9414 0.1362 0.2959 0.33 0.5616 0.5702 0.7816 0.2401 0.22 0.5217 0.3899 0.8283 0.4997 0.3067 0.1097 0.6321 0.1573 0.9573 0.1397 0.4669 0.027 0.9324-0.0724 1.3474-0.2879 0.4151-0.2154 0.7643-0.5388 1.0109-0.9361l0.8487 0.3794c-0.6569 1.1221-1.7218 1.7218-3.2233 1.7218-2.1135 0-3.5457-1.4199-3.5457-3.5497-0.0219-0.4704 0.0543-0.9402 0.224-1.3795 0.1696-0.4393 0.4289-0.8385 0.7613-1.1721 0.3324-0.3335 0.7307-0.5942 1.1694-0.7653 0.4387-0.1712 0.9083-0.2491 1.3788-0.2287 0.4444-0.0245 0.889 0.0446 1.305 0.2026 0.4161 0.1581 0.7944 0.4017 1.1105 0.7151 0.316 0.3134 0.5629 0.6896 0.7245 1.1043s0.2345 0.8587 0.2138 1.3033v0.5304h-5.9039zm0-0.816h4.8961c-0.0816-1.3506-1.0404-2.1543-2.4032-2.1543-0.6072-0.0233-1.2006 0.1843-1.6609 0.581s-0.7532 0.953-0.8198 1.557l-0.0122 0.0163z" fill="#343637"/>
<path d="m96.385 29.581c-0.1804-0.4673-0.5052-0.8649-0.9272-1.1349-0.4219-0.2701-0.919-0.3985-1.4189-0.3666-1.632 0-2.5786 1.1873-2.5786 2.6725s0.9425 2.6766 2.5786 2.6766c0.5002 0.0335 0.9981-0.0926 1.4219-0.3603 0.4238-0.2676 0.7517-0.663 0.9364-1.129l0.914 0.2734c-0.5304 1.2812-1.6321 2.089-3.2641 2.089-2.24 0-3.5498-1.5994-3.5498-3.5497-0.0202-0.4714 0.0578-0.9418 0.229-1.3814 0.1713-0.4396 0.4322-0.8388 0.766-1.1723 0.3338-0.3334 0.7333-0.5938 1.1731-0.7645 0.4398-0.1708 0.9103-0.2482 1.3817-0.2274 0.6947-0.0426 1.385 0.1363 1.9715 0.5109 0.5866 0.3747 1.0392 0.9258 1.2926 1.574l-0.9262 0.2897z" fill="#343637"/>
<path d="m98.98 27.337c0.1389 0.0165 0.2797 8e-4 0.4115-0.0458 0.1318-0.0467 0.251-0.1231 0.3485-0.2234 0.0975-0.1002 0.1706-0.2216 0.2135-0.3546 0.043-0.1331 0.0543-0.2743 0.0343-0.4126v-0.7589h0.914v1.7953h1.95v0.8894h-1.95v3.8191c0 0.9262 0.449 1.3505 1.2 1.3505 0.293 5e-4 0.585-0.0269 0.873-0.0816l0.081 0.8446c-0.374 0.0905-0.757 0.137-1.142 0.1387-1.326 0-1.979-0.7916-1.979-2.2237v-3.8435h-1.3791v-0.8935h0.4243z" fill="#343637"/>
<path d="m106.36 24.628c5e-3 0.1085-0.012 0.217-0.051 0.3184-0.039 0.1013-0.099 0.1934-0.176 0.2703-0.077 0.0768-0.169 0.1367-0.27 0.1759-0.102 0.0391-0.21 0.0566-0.319 0.0514-0.192-0.0306-0.366-0.1285-0.492-0.2762s-0.195-0.3355-0.195-0.5296c0-0.1942 0.069-0.3819 0.195-0.5296s0.3-0.2457 0.492-0.2763c0.107-0.0056 0.214 0.0109 0.314 0.0486s0.192 0.0958 0.268 0.1705c0.077 0.0748 0.137 0.1646 0.178 0.2638 0.04 0.0993 0.059 0.2057 0.056 0.3128zm-0.31 2.7092v6.8261h-0.971v-6.8261h0.971z" fill="#343637"/>
<path d="m109.07 27.337l2.62 5.7449 2.619-5.7449h1.118l-3.329 6.8383h-0.816l-3.329-6.8383h1.117z" fill="#343637"/>
<path d="m117.51 31.066c0.011 0.3255 0.087 0.6456 0.223 0.9414 0.136 0.2959 0.33 0.5616 0.57 0.7816s0.522 0.3899 0.829 0.4997c0.306 0.1098 0.632 0.1573 0.957 0.1397 0.467 0.0266 0.932-0.073 1.347-0.2884s0.764-0.5386 1.011-0.9356l0.849 0.3795c-0.657 1.122-1.722 1.7218-3.223 1.7218-2.114 0-3.546-1.4199-3.546-3.5497-0.022-0.4705 0.054-0.9403 0.224-1.3796 0.169-0.4393 0.429-0.8385 0.761-1.172 0.333-0.3336 0.731-0.5943 1.17-0.7654 0.438-0.1712 0.908-0.249 1.378-0.2287 0.444-0.0227 0.888 0.0478 1.303 0.2069s0.792 0.4033 1.106 0.717c0.315 0.3136 0.561 0.6897 0.721 1.104 0.161 0.4143 0.233 0.8576 0.212 1.3015v0.5304l-5.892-0.0041zm0-0.816h4.896c-0.085-1.3505-1.04-2.1543-2.403-2.1543-0.605-0.0201-1.195 0.1889-1.653 0.5853s-0.749 0.9509-0.815 1.5527l-0.025 0.0163z" fill="#343637"/>
<path d="m79.506 37.554c0.4439 0 0.8038-0.3599 0.8038-0.8038s-0.3599-0.8038-0.8038-0.8038-0.8038 0.3599-0.8038 0.8038 0.3599 0.8038 0.8038 0.8038z" fill="#F27331"/>
<path d="m83.557 37.101v4.5697c0.3066-0.4196 0.7131-0.7562 1.1826-0.9792 0.4695-0.2229 0.9871-0.3253 1.5062-0.2978 2.0605 0 3.4232 1.477 3.4232 3.5497 0 2.1543-1.4443 3.5456-3.4232 3.5456-0.5337 0.0359-1.0675-0.0683-1.5484-0.3024-0.481-0.234-0.8924-0.5897-1.1935-1.0318v1.1751h-0.918v-10.229h0.9711zm2.5786 9.4945c1.526 0 2.5664-1.0894 2.5664-2.6725s-0.971-2.6766-2.5664-2.6766c-1.5953 0-2.6072 1.1057-2.6072 2.6766 0 1.5708 0.9303 2.6725 2.6072 2.6725z" fill="#343637"/>
<path d="m92.179 44.237c0.0114 0.3252 0.0876 0.6448 0.224 0.9401 0.1364 0.2954 0.3303 0.5607 0.5704 0.7802 0.2401 0.2196 0.5215 0.3891 0.8279 0.4987 0.3063 0.1095 0.6315 0.1569 0.9563 0.1393 0.4676 0.0278 0.9339-0.0713 1.3497-0.2868 0.4159-0.2154 0.7658-0.5393 1.0127-0.9372l0.8446 0.3835c-0.6528 1.118-1.7177 1.7178-3.2192 1.7178-2.1135 0-3.5457-1.4158-3.5457-3.5457-0.0225-0.4707 0.0533-0.941 0.2227-1.3808 0.1693-0.4398 0.4285-0.8395 0.761-1.1735s0.731-0.595 1.17-0.7664 0.9089-0.2494 1.3797-0.229c0.4437-0.0221 0.887 0.0488 1.3016 0.2082 0.4146 0.1593 0.7913 0.4035 1.106 0.717s0.5603 0.6894 0.7212 1.1034c0.1608 0.414 0.2333 0.8571 0.2129 1.3008v0.5345l-5.8958-0.0041zm0-0.816h4.8962c-0.0816-1.3506-1.0364-2.1584-2.3992-2.1584-0.6048-0.018-1.1942 0.1924-1.6509 0.5893-0.4566 0.397-0.7471 0.9513-0.8135 1.5528l-0.0326 0.0163z" fill="#343637"/>
<path d="m101.07 40.512v1.4036c0.228-0.4704 0.588-0.8634 1.037-1.1304 0.45-0.267 0.967-0.396 1.489-0.3711h0.408v0.9017h-0.408c-1.612 0-2.448 1.224-2.448 2.595v3.4191h-0.971v-6.8179h0.893z" fill="#343637"/>
<path d="m105.88 40.512c0.14 0.0186 0.282 0.0045 0.415-0.0412 0.134-0.0458 0.255-0.1219 0.353-0.2224 0.099-0.1005 0.174-0.2227 0.217-0.3568 0.044-0.1341 0.056-0.2765 0.035-0.4159v-0.7671h0.914v1.8034h1.942v0.8854h-1.95v3.8231c0 0.9262 0.448 1.3505 1.199 1.3505 0.293 5e-4 0.586-0.0268 0.873-0.0816l0.082 0.8446c-0.374 0.0891-0.758 0.1343-1.142 0.1347-1.326 0-1.979-0.7916-1.979-2.2237v-3.8476h-1.379v-0.8854h0.42z" fill="#343637"/>
<path d="m112.42 40.512l2.856 5.7857 2.387-5.7857h1.122l-3.647 8.45c-0.478 1.1016-1.135 1.5382-2.114 1.5382-0.229 0.0023-0.458-0.0114-0.685-0.0408l0.057-0.9262c0.175 0 0.367 0.0286 0.559 0.0286 0.6 0 1.077-0.3713 1.42-1.1465l0.408-0.9834-3.505-6.9036 1.142-0.0163z" fill="#343637"/>
<path d="m121.8 36.371h-36.298v0.7467h36.298v-0.7467z" fill="#F27331"/>
<path d="m72.643 36.371h-14.382v0.7467h14.382v-0.7467z" fill="#F27331"/>
</g>
<defs>
<clipPath id="a">
<path d="M0 0H123.91V56H0V0Z" fill="#343637"/>
</clipPath>
</defs>
</svg>
