<svg xmlns="http://www.w3.org/2000/svg" fill="none" viewBox="0 0 499 100"><defs/><path fill="#657788" d="M0 16.65V33.3h4.95V4.95H33.3V0H0v16.65zM100 83.35V66.7h-4.95v28.35H66.7V100H100V83.35z"/><path fill="#80D2C8" d="M83.58 50.18a33.56 33.56 0 01-33.6 33.53A33.56 33.56 0 0116.4 50.18a33.56 33.56 0 0133.59-33.53 33.56 33.56 0 0133.59 33.53z"/><path fill="#0069CA" fill-rule="evenodd" d="M47.1 16.77a33.56 33.56 0 00-30.65 35.1c.02-.04.05-.06.07-.06l.24.14c.11.07.26.14.32.16.17.02.91.24 1.25.35 1.36.48 2.11.93 2.35 1.42.14.29.19.5.22 1.06.05.89.07 1.03.2 1.24.14.22.3.28.84.34.5.05.78.15 1.62.56.98.49 1.23.57 1.9.6 1.06.06 1.66.16 2.48.39 1.22.34 2.04.8 2.35 1.32.03.05.04.17.04.4 0 .29-.02.37-.1.62-.2.57-.48 1.1-1.22 2.26-.66 1.02-.75 1.3-1.02 2.86a9.13 9.13 0 01-.6 2.28c-.38.9-.93 1.6-1.27 1.6-.5 0-1.47.67-1.9 1.32-.22.32-.27.45-.23.53l.06.08c.02 0 .03.01.03.03 0 .02.03.06.07.1l.15.18.15.18c.04.04.06.1.05.12 0 .02 0 .03.02.02.04-.02.34.3.32.35 0 .03.01.04.04.02.04-.01.05 0 .03.04-.01.03 0 .04.01.03.02-.01.05 0 .08.03s.04.05.03.05c0 0 .08.1.19.2.11.13.2.24.19.26-.01.03 0 .03.01.02.02-.01.17.12.35.3l.34.36.27.27.12.11.23.22c.18.18.31.33.3.35-.01.01 0 .02.02.01.02 0 .13.08.25.2a1.37 1.37 0 00.26.2c.03.04.04.07.03.09-.01.02 0 .02.03 0 .04 0 .05 0 .04.04-.02.03 0 .04.02.04.05-.02.37.28.35.32-.01.02 0 .03.02.02.02-.01.08.01.12.05a36.5 36.5 0 004.52 3.26l.15.07c.02 0 .04.02.04.03 0 .02.02.04.04.04.03 0 .05 0 .05.02l.14.09c.08.03.14.07.14.08 0 .01.02.02.05.02.02 0 .04.02.04.04 0 .01.03.03.05.03.03 0 .05 0 .05.03 0 .01.02.03.05.03.05 0 .24.1.25.13 0 .02.03.02.06.02.02 0 .04.01.04.03 0 .02.23.13.28.13.02 0 .03.01.03.03 0 .02.03.03.05.03.03 0 .05.02.05.03 0 .02.03.04.06.04s.06 0 .06.03c0 .01.02.03.05.03.02 0 .05.01.05.03 0 .01.02.03.04.03.06 0 .37.16.39.2 0 0 .03.02.07.02.03 0 .06.01.06.03 0 .02.01.03.02.02.02-.01.07.01.13.05.05.03.12.05.14.05.03 0 .05.02.05.04 0 .01.03.03.07.03.04 0 .06 0 .05.02-.03.02.13.09.28.12.04.01.07.03.07.05 0 .01.03.03.06.03.04 0 .06 0 .06.03 0 .01.03.03.07.03.03 0 .06.01.06.03 0 .01.02.03.05.03.02 0 .11.03.2.08l.2.08c.03 0 .04 0 .03.03-.01.02.02.03.06.03.04 0 .08.01.08.03 0 .02.02.03.05.03.05 0 .2.06.33.13l.1.03c.03 0 .05 0 .05.03 0 .01.04.03.08.03.05 0 .08.01.06.03 0 .02.02.03.06.03.04 0 .1.02.16.05.05.02.11.05.14.05.04 0 .06 0 .06.03 0 .01.04.03.09.03.04 0 .07.01.05.03 0 .02.02.03.06.03.05 0 .08.01.08.03 0 .01.06.03.13.04a.75.75 0 01.25.09l.06.03.13.03c.03 0 .05.01.04.03 0 .02.02.03.08.03.05 0 .1.01.1.03 0 .01.06.04.14.05.07 0 .14.03.15.05.01.01.05.03.1.03.04 0 .07 0 .07.03 0 .01.05.03.1.03s.09.01.09.03c0 .02.04.03.1.03.05 0 .09.01.09.03 0 .02.07.04.15.05.09.01.16.03.16.05 0 .01.04.03.1.03.05 0 .09.01.09.03 0 .01.05.03.1.03.07 0 .11.01.1.03-.01.02.02.03.08.03s.16.02.23.05l.2.05c.03 0 .07 0 .07.03 0 .01.05.03.1.03.06 0 .11.01.11.03 0 .01.05.03.12.03.06 0 .1.01.09.03 0 .01.07.04.18.05.12 0 .21.03.22.05.01.01.07.03.13.03s.11 0 .12.03c.01.01.07.03.13.03s.1.01.1.03c0 .02.06.03.13.03s.13.01.13.03c0 .01.1.04.24.05.14.01.25.03.25.05 0 .01.07.03.14.03.08 0 .15.01.15.03 0 .01.06.03.14.03.07 0 .14.01.14.03 0 .02.07.03.15.03.09 0 .15.01.15.03-.01.02.12.04.3.05.18.01.34.03.35.05.01.02.08.03.17.03.09 0 .15.01.15.03 0 .02.1.03.2.03.12 0 .21.01.21.03 0 .02.09.03.2.03.12 0 .2.02.2.03 0 .02.22.04.49.05.26.01.5.03.5.05.01.02.16.03.33.03.18 0 .3.01.3.03 0 .02.18.03.45.03a20.78 20.78 0 002.24.06 20.77 20.77 0 003-.12c.16 0 .3-.01.32-.03 0-.02.24-.04.5-.05.27-.01.48-.03.48-.05 0-.01.1-.03.2-.03.12 0 .21-.01.21-.03 0-.02.09-.03.2-.03.12 0 .2-.01.2-.03 0-.02.07-.03.16-.03s.16-.01.17-.03c0-.02.17-.04.35-.05.18-.01.31-.03.3-.05 0-.02.06-.03.15-.03.08 0 .15-.01.15-.03 0-.02.07-.03.14-.03.08 0 .14-.02.14-.03 0-.02.07-.03.15-.03.07 0 .14-.02.14-.03 0-.02.1-.04.25-.05.13-.01.24-.04.24-.05 0-.02.07-.03.15-.03.08 0 .13-.01.12-.03-.01-.02.02-.03.09-.03.06 0 .12-.02.13-.03 0-.02.06-.03.12-.03s.12-.02.13-.03c0-.02.1-.04.22-.05.1-.01.19-.04.18-.05 0-.02.03-.03.1-.03.06 0 .1-.02.1-.03 0-.02.06-.03.12-.03.05 0 .1-.02.1-.03 0-.02.04-.03.08-.03l.19-.05a.96.96 0 01.23-.05c.06 0 .1-.01.08-.03-.01-.02.03-.03.1-.03.05 0 .1-.02.1-.03 0-.02.05-.03.1-.03s.1-.02.1-.03c0-.02.11-.05.28-.08l.04-.02c.01-.02.06-.03.1-.03.04 0 .07-.01.07-.03 0-.02.04-.03.1-.03.05 0 .09-.02.09-.03 0-.02.03-.03.07-.03.05 0 .09-.02.1-.03 0-.02.08-.04.15-.05.08-.01.15-.04.15-.05 0-.02.04-.03.1-.03.05 0 .08-.01.07-.03-.02-.02.02-.03.07-.03s.1-.02.1-.03c0-.02.03-.03.06-.03s.07-.02.08-.03c0-.02.08-.04.15-.06.08 0 .15-.03.15-.04 0-.02.03-.03.08-.03.04 0 .07-.01.06-.03-.02-.02.01-.03.05-.03.05 0 .09-.02.09-.03 0-.02.02-.03.06-.03.03 0 .1-.03.14-.05a.45.45 0 01.16-.05c.04 0 .07-.01.06-.03-.02-.02.01-.03.06-.03.04 0 .08-.02.08-.03 0-.02.02-.03.04-.03l.1-.03c.13-.07.3-.13.34-.13.03 0 .05-.01.05-.03 0-.02.03-.03.07-.03.04 0 .08-.01.09-.03.02-.03.36-.19.43-.19.03 0 .06-.02.06-.03 0-.02.03-.03.07-.03.03 0 .05-.01.04-.03 0-.02.01-.03.05-.03.03 0 .06-.02.06-.03 0-.02.03-.04.07-.05.15-.03.3-.1.28-.12 0-.01.01-.02.05-.02s.07-.02.07-.03c0-.02.02-.04.05-.04.02 0 .09-.02.14-.05.06-.04.11-.06.13-.05 0 0 .02 0 .02-.02s.03-.03.06-.03c.04 0 .07-.01.07-.03.02-.03.33-.19.39-.19.02 0 .04-.02.04-.03 0-.02.03-.03.05-.03.03 0 .05-.02.05-.03 0-.02.03-.03.06-.03s.06-.02.06-.04c0-.01.02-.03.05-.03.02 0 .05 0 .05-.02s.04-.04.09-.05l.1-.05c.02-.02.05-.03.09-.03.03 0 .05-.02.04-.03 0-.02 0-.04.03-.04s.05 0 .05-.02c0-.01.07-.05.16-.08l.15-.09c0-.01.03-.02.07-.02.03 0 .05-.02.04-.03 0-.02 0-.04.03-.04s.05 0 .05-.02c0-.01.06-.05.14-.08.08-.04.14-.08.14-.1l.05-.01c.02 0 .04-.02.04-.04 0-.01.03-.03.07-.03.03 0 .06 0 .06-.02 0-.03.18-.13.23-.13.02 0 .06-.03.08-.06.03-.04.06-.07.08-.07.03 0 .05-.01.05-.03 0-.02.11-.07.16-.06l.02-.03c0-.02.02-.03.04-.03s.06-.03.08-.06c.03-.03.11-.08.18-.11a.73.73 0 00.17-.12c.03-.03.07-.06.1-.06.01 0 .03 0 .03-.02 0-.01.05-.05.12-.08.07-.04.12-.07.12-.09l.04-.02.1-.06a.98.98 0 01.17-.12.79.79 0 00.17-.11l.07-.06c.02 0 .05-.03.08-.06.02-.03.05-.05.07-.04.01 0 .02 0 .02-.02s.02-.03.05-.03c.02 0 .05-.02.05-.03 0-.02.02-.04.05-.04.02 0 .03-.01.02-.03 0-.02 0-.03.03-.03.02 0 .07-.03.1-.06.04-.03.08-.05.09-.04 0 .01.02 0 .02-.02s.01-.03.03-.03c.02 0 .07-.05.13-.1.05-.05.1-.1.12-.1l.1-.07a.37.37 0 01.1-.08l.1-.08a.32.32 0 01.1-.07l.12-.1.12-.1c.02 0 .1-.05.16-.12a.92.92 0 01.16-.12.8.8 0 00.16-.13.9.9 0 01.14-.12l.1-.07a3.56 3.56 0 01.47-.35c.02 0 .03 0 .02-.02-.02-.03.3-.33.35-.32.02 0 .03-.02.02-.04-.01-.04 0-.05.04-.03.03.01.04 0 .03-.01-.02-.04.06-.13.1-.1l.01-.02c0-.02.02-.04.03-.04.02 0 .1-.06.17-.14.07-.08.14-.14.16-.13.03.01.04 0 .02-.03-.01-.04 0-.05.04-.03.03.01.04 0 .03-.03-.02-.04-.01-.05.03-.03.03 0 .05 0 .03-.02-.01-.02.34-.4.59-.6a.74.74 0 00.09-.1c.03-.05.05-.06.06-.03.02.02.03.01.03-.04 0-.04.01-.06.02-.05.02 0 .05-.02.08-.05.08-.12.2-.24.22-.22.01 0 .02 0 .02-.02 0-.06.34-.39.37-.37.03.02.03 0 .02-.03-.02-.04-.01-.05.03-.03.03 0 .04 0 .03-.03-.02-.04 0-.05.03-.04.03.02.04.01.03-.02 0-.02.02-.07.07-.1.04-.04.08-.08.08-.1 0-.02.01-.03.03-.02.02.01.03 0 .03-.02s.03-.06.07-.1l.04-.05c-.01 0 0-.02.03-.05.03-.03.06-.04.08-.03.02.01.02 0 0-.03 0-.05 0-.05.04-.04.04.02.05.01.04-.01-.02-.02.01-.07.06-.1.04-.05.08-.1.08-.12 0-.01.01-.02.03-.01.02 0 .03 0 .03-.02 0-.05.09-.13.12-.1.02 0 .03 0 .02-.03-.01-.03.01-.08.06-.13a.48.48 0 00.08-.1l.07-.09.11-.13c.03-.04.06-.06.08-.05 0 0 .02-.02.02-.06 0-.05 0-.06.03-.02.03.04.03.03.03-.02 0-.03.04-.09.08-.13.04-.04.08-.08.08-.1 0-.02.01-.03.03-.02.02.01.03 0 .03-.05 0-.03.02-.05.03-.04.02 0 .03 0 .03-.03s.04-.07.08-.1c.04-.04.08-.1.08-.12 0-.03.01-.04.03-.03.02 0 .03 0 .03-.04s.01-.04.05-.01c.03.03.04.02.02-.03 0-.04 0-.07.04-.08.03-.01.05-.04.05-.07 0-.05.08-.13.1-.11.01.01.02-.01.02-.05s.01-.06.03-.05c.02.01.03 0 .03-.02 0-.05.12-.19.14-.16.01 0 .02 0 .02-.04s.03-.08.06-.1c.04-.03.07-.07.07-.1 0-.01.01-.03.03-.03.02 0 .02-.01.02-.03-.01-.01 0-.04.04-.07.03-.02.06-.07.06-.1s.02-.05.03-.04c.02.01.03 0 .03-.03 0-.04.01-.04.05-.02.03.03.03.03.03-.04-.01-.05 0-.1.06-.15l.08-.11c0-.02.02-.04.03-.04.02 0 .03-.02.03-.05 0-.02.02-.04.03-.03.02.01.04-.01.05-.06.01-.04.03-.07.05-.07.02 0 .03-.03.03-.05 0-.03.02-.04.03-.03.02 0 .03-.01.03-.05 0-.03.02-.06.03-.06.02 0 .04-.02.04-.05 0-.03 0-.04.02-.03.02 0 .04-.02.05-.06.01-.05.03-.08.05-.08.02 0 .03-.03.03-.07 0-.03.02-.05.03-.04.02.01.03-.01.03-.05 0-.06.01-.06.03-.03.03.04.04.04.04-.02 0-.03.02-.08.04-.1.03-.02.05-.06.05-.09 0-.02.02-.04.04-.03.03.02.04 0 .03-.06-.01-.07 0-.08.02-.04.03.04.03.03.03-.02 0-.04.02-.07.03-.07.02 0 .04-.04.05-.08.01-.05.03-.08.05-.08.02 0 .03-.03.03-.06 0-.04.02-.06.03-.06.02 0 .03-.03.03-.05 0-.03.02-.04.03-.03.02 0 .04-.01.04-.05s.01-.06.03-.05c.01.01.03 0 .03-.04s.02-.07.04-.08a.1.1 0 00.05-.08c0-.03.02-.06.03-.06.02 0 .03-.03.03-.07 0-.03.02-.05.03-.04.02 0 .04-.01.04-.05 0-.03.01-.05.03-.04.02 0 .03-.01.03-.05 0-.03.02-.08.04-.1a.17.17 0 00.05-.11c0-.05 0-.05.03 0 .03.03.03.02.03-.05 0-.05.02-.08.04-.07.01.01.03 0 .03-.04s.01-.07.03-.07c.02 0 .03-.03.03-.06s.02-.08.05-.1a.17.17 0 00.04-.1c0-.03.02-.04.03-.03.02 0 .03-.01.03-.05s.02-.06.04-.05c.01.01.03 0 .03-.04s.01-.07.03-.07l.04-.1c.01-.06.04-.11.05-.11.02 0 .03-.03.03-.05 0-.03.02-.05.03-.05.02 0 .04-.03.04-.06 0-.04.01-.06.03-.05.02.01.03 0 .03-.03s.02-.07.04-.1a.19.19 0 00.05-.1c0-.04.02-.06.03-.06.02 0 .03-.03.03-.07 0-.03.02-.06.03-.06.02 0 .04-.03.04-.06 0-.04.01-.06.03-.05.02.01.03-.01.03-.06 0-.04.01-.08.03-.08.02 0 .02-.01.02-.03v-.03c.03 0 .04-.03.04-.06 0-.04.02-.07.03-.07.02 0 .03-.03.03-.08 0-.07.01-.08.04-.04.02.03.03.02.03-.06s0-.1.03-.06c.02.03.03.02.03-.04 0-.05.02-.1.05-.13.02-.03.05-.06.04-.07 0-.1 0-.14.03-.12.02 0 .04-.02.04-.07 0-.04 0-.07.03-.06.02.01.03-.01.03-.06 0-.05.01-.08.03-.06.02 0 .03-.02.03-.06 0-.04.02-.1.05-.13a.18.18 0 00.04-.1c0-.04.02-.07.03-.07.02 0 .04-.04.04-.08 0-.05 0-.07.03-.06.02.01.03-.02.03-.06 0-.05.01-.08.03-.07.01.01.03-.04.04-.1.01-.07.04-.13.05-.13.02 0 .03-.04.03-.08 0-.05.02-.07.04-.06.01.01.03-.02.03-.08s0-.09.03-.08c.02.02.03-.02.03-.07 0-.06.01-.1.03-.09.01.01.03-.03.04-.1.01-.07.04-.13.05-.13.02 0 .04-.04.04-.1 0-.05 0-.08.03-.07.02.01.03-.02.03-.08 0-.08 0-.1.03-.06 0 .02.02.02.02.02v-.02l.01-.05c0-.06.01-.1.03-.1.02 0 .04-.07.05-.15.01-.07.03-.13.05-.12.01.01.03-.02.03-.07 0-.06.01-.1.03-.1.02 0 .03-.05.03-.1s.01-.09.03-.07c.02 0 .03-.02.03-.08 0-.05.02-.1.03-.1.02 0 .05-.07.05-.14.01-.08.03-.13.05-.12.01.01.03-.03.03-.1 0-.06 0-.1.03-.09.02.02.03-.02.03-.09 0-.06.01-.11.03-.11.02 0 .03-.04.03-.09 0-.05.02-.1.04-.1.01 0 .04-.08.05-.16 0-.08.03-.15.04-.15.01 0 .03-.04.03-.1 0-.05.01-.08.03-.07.02.01.03-.03.03-.12 0-.08 0-.11.03-.09.01.03.03-.02.04-.14.01-.1.04-.18.05-.19.02 0 .04-.07.04-.13 0-.08 0-.12.03-.11.02.01.03-.03.03-.12 0-.1 0-.12.03-.08h.01l.02-.07v-.04c0-.1.01-.14.03-.12h.01a125.92 125.92 0 00.04-.18c0-.12.03-.22.05-.22.01 0 .03-.05.03-.12 0-.07.01-.13.03-.13.02 0 .03-.05.03-.12a30.17 30.17 0 00.14-.61 35.68 35.68 0 00.08-.37c0-.13 0-.18.03-.14l.03-.13a29.03 29.03 0 00.16-1c0-.08 0-.12.03-.1a26.03 26.03 0 00.27-2.08 32.94 32.94 0 00.15-3.22c0-6.14-1.65-11.9-4.54-16.84l-.05.05c-.1.11-.23.23-.32.27-.13.06-.19.07-.58.07-.47 0-.57-.01-1.48-.25-.8-.2-1.17-.26-1.63-.26-.37 0-.44 0-.65.07a1.1 1.1 0 00-.72.7c-.06.16-.07.24-.07.68 0 .37.01.57.05.78.08.36.25.98.31 1.1.08.15.3.35.5.42.21.08.7.09.99.01a3.5 3.5 0 001.27-.62c.19-.17.32-.22.55-.19.69.08 1.46.5 2.13 1.18.37.37.56.61.8 1 .23.38.28.54.27.87-.01.25-.03.3-.12.48-.24.47-.6.82-1.68 1.6-1.8 1.3-2.52 1.99-3.1 2.95-.29.49-.43.69-.66.9-.22.22-.37.31-.63.42-.16.07-.24.08-.56.08-.49 0-.7-.07-1.36-.4-.24-.13-.84-.55-1.16-.82a179.55 179.55 0 01-1.38-1.15c-.64-.5-1.33-1.23-1.89-1.98-.56-.76-.65-.88-1.37-1.97a50.78 50.78 0 00-1.36-1.98l-.02-.02c-.4-.6-.64-.83-.86-.84-.2 0-.51.24-.57.45-.06.24.07.8.35 1.5a62.04 62.04 0 002.3 4.68c.36.67.78 1.49.9 1.75.3.69.43.84 1.04 1.18.51.29 1.5.55 2.5.66.73.08 1.1.18 1.54.43.7.38 1.04.9 1.05 1.58 0 .28-.05.47-.22.78a6.59 6.59 0 01-.77 1.08c-.08.1-.45.48-.8.85-.55.55-.88.86-1.76 1.67l-.07.07a24.16 24.16 0 01-.44.4l-.08.06-.12.12-.46.42c-.8.74-1 .98-1.1 1.32a7.23 7.23 0 00.04 2.1l.19 1.33c.2 1.25.28 1.87.28 2.18 0 .38-.05.5-.34.88-.24.32-.43.52-1.06 1.1-.7.64-1.46 1.4-1.59 1.59-.2.28-.25.43-.29.76a4.36 4.36 0 01-.4 1.41c-.1.23-.43.91-.55 1.13a36 36 0 01-2.55 3.75c-.77.95-1.26 1.33-2.05 1.56-.67.2-.94.22-2.15.22h-1.04l-.19-.1c-.38-.18-.62-.6-.8-1.38-.1-.42-.11-.52-.15-.72l-.02-.1a76.48 76.48 0 00-.2-.91l-.06-.23-.32-1.3a17.32 17.32 0 00-.74-2.54 4.82 4.82 0 00-.9-1.51 2.69 2.69 0 01-.73-1.56c-.05-.25-.05-1.56 0-1.97v-.02l.14-.98.04-.22.2-1.04c.17-.85.21-1.17.22-1.56 0-.48-.1-1.11-.26-1.68a19.63 19.63 0 00-.62-1.77l-.55-1.32a4.93 4.93 0 00-.61-1.1 2.76 2.76 0 00-1.38-.86 6.38 6.38 0 00-2.92.1l-.45.05-1 .1-.48.06c-1.91.21-3.63.3-4.56.22-.93-.08-1.08-.14-1.9-.73-.95-.7-1.33-1.35-1.57-2.66-.1-.55-.13-1-.13-2.06 0-1.16.05-1.79.18-2.56.12-.7.37-1.63.6-2.24l.08-.22.05-.14.04-.12.07-.18a111.21 111.21 0 00.91-2.53c.46-1.4 1.12-2.19 2.58-3.07l.98-.56a20.84 20.84 0 002-1.23c.68-.47 1-.65 1.46-.8.83-.28 1.54-.31 2.72-.12.22.03 1.13.2 1.31.25l.69.12c.1.02.5.06.87.08.38.03.77.07.87.1.3.07.6.25.85.5.28.27.4.46.79 1.22.52 1.03.66 1.16 1.47 1.3.74.14.98.12 1.65-.11l.48-.17h.42c.26 0 .6.04.9.08 1.2.18 1.64.22 2.3.22 1.55 0 2.72-.42 3.75-1.33a6.45 6.45 0 001.4-1.8c.18-.37.22-.54.21-.94 0-.33-.01-.4-.08-.6-.22-.58-.5-.95-1.54-2.04-.8-.84-.96-1-1.15-1.23-.3-.35-.34-.4-.6-.67-.34-.34-.48-.42-.76-.42-.27 0-.35.04-.81.44-.67.57-.94.72-1.54.88a4.8 4.8 0 01-2.95-.58c-.91-.4-1.14-.5-1.75-.7a4.17 4.17 0 00-1.54-.3c-.8 0-1.12.21-1.96 1.33-.96 1.3-1.45 1.76-2.27 2.17-1.03.52-2.25.81-3.73.89a10.7 10.7 0 01-2.62-.18l-.07-.01c-.25-.06-.6-.19-.79-.28-.72-.38-.8-1.19-.24-2.34.19-.39.46-.77.83-1.14.56-.6 1.1-.88 1.59-.88.15 0 .5-.06.69-.12.25-.08.5-.25.76-.5.23-.23.29-.32.41-.57.23-.47.28-.68.3-1.28 0-.44 0-.56-.06-.87a5.37 5.37 0 01.23-2.7l.1-.34a32.27 32.27 0 01.93-2.65z" clip-rule="evenodd"/><path fill="#657788" d="M149.06 40.87c-4.42 0-8.07 1.8-10.18 4.87V28.39h-5.5V73h5.5V59.11c0-8.83 3-13.37 8.7-13.37 4.48 0 6.53 2.81 6.53 8.96V73h5.5V53.35c0-8.13-3.7-12.48-10.55-12.48zm31.96 0c-5.5 0-9.8 2.11-13.31 6.6l3.96 3.32c2.5-3.33 5.5-5.05 9.22-5.05 4.8 0 7.49 2.68 7.49 7.55v1.28h-6.98c-5.31 0-8.45.51-10.81 1.79-2.56 1.4-3.97 3.97-3.97 7.3 0 6.08 4.29 9.92 11.07 9.92 4.74 0 8.51-1.92 10.75-5.32l.39 4.74h5.05V53.29c0-7.81-4.8-12.42-12.86-12.42zm-2.05 28.1c-4.22 0-6.85-1.99-6.85-5.06 0-1.6.58-2.81 1.6-3.65 1.35-1.02 3.52-1.4 8.32-1.4h6.34v.32c0 5.82-3.84 9.79-9.41 9.79zm36.69 4.6c5.88 0 10.56-3.2 12.67-8.95l-5.06-1.92c-1.09 3.77-3.97 6.01-7.68 6.01-6.27 0-8.96-5.44-8.96-11.39s2.7-11.58 8.96-11.58c3.65 0 6.53 2.3 7.81 6.14l5.25-2.11c-2.5-6.02-7.23-8.9-13.06-8.9C205.8 40.87 201 49 201 57.32c0 8.64 5.12 16.26 14.66 16.26zm20.22-.57h5.5v-9.28l6.46-6.91L258.28 73h6.52l-13.18-19.58 11.52-11.97h-7.36l-14.4 15.42V28.4h-5.5V73zm57.97-15.87V28.39h-4.99L266.46 59v3.45h21.89V73h5.5V62.44h7.17v-5.31h-7.17zm-20.22 0l14.72-20.67v20.67h-14.72zm33.55-22.02h6.14V28.4h-6.14v6.72zM307.5 73h5.5V41.45h-5.5V73zm49.72-32.13c-4.54 0-8.13 1.86-10.3 6.15-1.73-4.42-5.19-6.15-9.28-6.15-3.4 0-6.6 1.22-8.58 4.48v-3.9h-5.37l.06 31.55h5.5V58.86c0-6.85 1.1-13.12 7.37-13.12 5.3 0 6.52 4.86 6.52 9.15V73h5.5V58.86c0-6.85 1.03-13.12 7.5-13.12 6.27 0 6.4 6.4 6.4 9.02V73h5.5V53.16c0-7.04-3.27-12.29-10.82-12.29zm36.27 0c-4.1 0-7.68 1.47-9.99 4.48v-3.9H378v44.6h5.5V69.04c2.12 2.82 5.76 4.55 9.99 4.55 8.77 0 13.82-6.66 13.82-16.39s-5.12-16.32-13.82-16.32zm-1.03 27.84c-6.27 0-9.4-4.93-9.4-11.52 0-6.85 3.32-11.52 9.4-11.52 5.96 0 9.35 4.48 9.35 11.52 0 6.85-3.2 11.52-9.35 11.52zm34.5-27.84c-5.5 0-9.8 2.11-13.32 6.6l3.97 3.32c2.5-3.33 5.5-5.05 9.22-5.05 4.8 0 7.49 2.68 7.49 7.55v1.28h-6.98c-5.31 0-8.45.51-10.82 1.79-2.56 1.4-3.96 3.97-3.96 7.3 0 6.08 4.28 9.92 11.07 9.92 4.73 0 8.51-1.92 10.75-5.32l.38 4.74h5.06V53.29c0-7.81-4.8-12.42-12.86-12.42zm-2.05 28.1c-4.23 0-6.85-1.99-6.85-5.06 0-1.6.57-2.81 1.6-3.65 1.34-1.02 3.52-1.4 8.32-1.4h6.34v.32c0 5.82-3.84 9.79-9.41 9.79zm36.68 4.6c5.9 0 10.56-3.2 12.68-8.95l-5.06-1.92c-1.09 3.77-3.97 6.01-7.68 6.01-6.27 0-8.96-5.44-8.96-11.39s2.69-11.58 8.96-11.58c3.65 0 6.53 2.3 7.8 6.14l5.26-2.11c-2.5-6.02-7.24-8.9-13.06-8.9-9.8 0-14.6 8.13-14.6 16.45 0 8.64 5.13 16.26 14.66 16.26zm34.56-27.64v-4.48h-7.74V29.86l-5.5 4.1v7.49h-5.2v4.48h5.2v19.2c0 5.95 3.58 8.45 8.12 8.45 1.66 0 3.4-.32 5.12-.9v-4.67c-1.4.45-2.69.7-3.78.7-2.5 0-3.96-1.28-3.96-4.16V45.93h7.74z"/></svg>
